<svg width="104" height="38" viewBox="0 0 104 38" fill="none" xmlns="http://www.w3.org/2000/svg">
<path d="M38.2359 9.00696H40.0962L42.8355 16.8365L45.5747 9.00696H47.4351L43.5825 19.671H42.0884L38.2359 9.00696ZM37.2324 9.00696H39.0855L39.4224 16.6388V19.671H37.2324V9.00696ZM46.5855 9.00696H48.4458V19.671H46.2486V16.6388L46.5855 9.00696ZM52.7085 9.00696V19.671H50.5186V9.00696H52.7085ZM59.315 9.00696V19.671H57.125V9.00696H59.315ZM62.5962 9.00696V10.7281H53.895V9.00696H62.5962ZM71.0044 17.9572V19.671H65.3281V17.9572H71.0044ZM66.0459 9.00696V19.671H63.8487V9.00696H66.0459ZM70.2647 13.3502V15.0201H65.3281V13.3502H70.2647ZM70.9971 9.00696V10.7281H65.3281V9.00696H70.9971ZM80.7383 14.0973V18.3234C80.5723 18.5236 80.3159 18.7408 79.9693 18.9752C79.6226 19.2047 79.1758 19.4025 78.6289 19.5685C78.0821 19.7345 77.4204 19.8175 76.6441 19.8175C75.9556 19.8175 75.3281 19.7052 74.7617 19.4806C74.1953 19.2511 73.7071 18.9166 73.2969 18.4772C72.8916 18.0377 72.5791 17.5006 72.3594 16.8658C72.1397 16.2262 72.0298 15.4962 72.0298 14.6759V14.0094C72.0298 13.1891 72.1348 12.4591 72.3447 11.8195C72.5596 11.1798 72.8648 10.6403 73.2603 10.2008C73.6558 9.76135 74.127 9.42688 74.6739 9.19739C75.2207 8.9679 75.8286 8.85315 76.4976 8.85315C77.4253 8.85315 78.187 9.00452 78.7827 9.30725C79.3784 9.6051 79.8325 10.0201 80.145 10.5524C80.4624 11.0797 80.6577 11.6852 80.731 12.3688H78.5996C78.5459 12.0074 78.4434 11.6925 78.292 11.424C78.1406 11.1554 77.9234 10.9454 77.6402 10.7941C77.3618 10.6427 77.0005 10.567 76.5562 10.567C76.19 10.567 75.8628 10.6427 75.5747 10.7941C75.2915 10.9406 75.0523 11.1578 74.857 11.4459C74.6616 11.734 74.5127 12.0905 74.4102 12.5153C74.3076 12.9401 74.2564 13.4332 74.2564 13.9948V14.6759C74.2564 15.2325 74.3101 15.7257 74.4175 16.1554C74.5249 16.5802 74.6836 16.9391 74.8936 17.2321C75.1084 17.5201 75.3721 17.7374 75.6846 17.8839C75.9971 18.0304 76.3609 18.1036 76.7759 18.1036C77.1226 18.1036 77.4107 18.0743 77.6402 18.0157C77.8745 17.9572 78.0625 17.8864 78.2041 17.8033C78.3506 17.7155 78.4629 17.6324 78.541 17.5543V15.6647H76.5342V14.0973H80.7383ZM82.5108 9.00696H86.4878C87.3032 9.00696 88.0039 9.12903 88.5899 9.37317C89.1807 9.61731 89.6348 9.97864 89.9522 10.4572C90.2696 10.9357 90.4282 11.524 90.4282 12.2223C90.4282 12.7936 90.3306 13.2843 90.1353 13.6945C89.9448 14.0997 89.6739 14.4391 89.3223 14.7125C88.9756 14.9811 88.5679 15.1959 88.0991 15.3571L87.4033 15.7233H83.9463L83.9317 14.0094H86.5025C86.8882 14.0094 87.208 13.941 87.4619 13.8043C87.7158 13.6676 87.9063 13.4772 88.0332 13.233C88.1651 12.9889 88.231 12.7057 88.231 12.3834C88.231 12.0416 88.1675 11.7462 88.0406 11.4972C87.9136 11.2482 87.7207 11.0577 87.4619 10.9259C87.2031 10.7941 86.8784 10.7281 86.4878 10.7281H84.708V19.671H82.5108V9.00696ZM88.4727 19.671L86.041 14.9176L88.3628 14.903L90.8238 19.5685V19.671H88.4727ZM96.4561 10.8307L93.5557 19.671H91.2193L95.1817 9.00696H96.6685L96.4561 10.8307ZM98.8657 19.671L95.958 10.8307L95.7237 9.00696H97.2251L101.209 19.671H98.8657ZM98.7339 15.7013V17.4225H93.1016V15.7013H98.7339Z" fill="#0067FF"/>
<path d="M40.0137 26.3531V30.6187H39.1377V26.3531H40.0137ZM41.3262 26.3531V27.0416H37.8458V26.3531H41.3262ZM44.6895 29.9332V30.6187H42.419V29.9332H44.6895ZM42.7061 26.3531V30.6187H41.8272V26.3531H42.7061ZM44.3936 28.0904V28.7584H42.419V28.0904H44.3936ZM44.6866 26.3531V27.0416H42.419V26.3531H44.6866ZM47.6749 29.2037H48.5508C48.5333 29.4908 48.4542 29.7457 48.3135 29.9683C48.1749 30.191 47.9805 30.3648 47.7305 30.4898C47.4825 30.6148 47.1836 30.6773 46.834 30.6773C46.5606 30.6773 46.3155 30.6304 46.0987 30.5367C45.8819 30.441 45.6963 30.3043 45.542 30.1265C45.3897 29.9488 45.2735 29.7339 45.1934 29.482C45.1133 29.23 45.0733 28.9478 45.0733 28.6353V28.3394C45.0733 28.0269 45.1143 27.7447 45.1963 27.4927C45.2803 27.2388 45.3995 27.023 45.5538 26.8453C45.71 26.6675 45.8965 26.5308 46.1133 26.4351C46.3301 26.3394 46.5723 26.2916 46.8399 26.2916C47.1954 26.2916 47.4952 26.356 47.7393 26.4849C47.9854 26.6138 48.1758 26.7916 48.3106 27.0181C48.4473 27.2447 48.5294 27.5025 48.5567 27.7916H47.6778C47.668 27.6197 47.6338 27.4742 47.5752 27.355C47.5167 27.2339 47.4278 27.1431 47.3086 27.0826C47.1915 27.0201 47.0352 26.9888 46.8399 26.9888C46.6934 26.9888 46.5655 27.0162 46.4561 27.0709C46.3467 27.1255 46.2549 27.2086 46.1807 27.3199C46.1065 27.4312 46.0508 27.5718 46.0137 27.7418C45.9786 27.9097 45.961 28.107 45.961 28.3336V28.6353C45.961 28.856 45.9776 29.0504 46.0108 29.2183C46.044 29.3843 46.0948 29.525 46.1631 29.6402C46.2335 29.7535 46.3233 29.8394 46.4327 29.898C46.544 29.9547 46.6778 29.983 46.834 29.983C47.0176 29.983 47.169 29.9537 47.2881 29.8951C47.4073 29.8365 47.4981 29.7496 47.5606 29.6343C47.6251 29.5191 47.6631 29.3755 47.6749 29.2037ZM51.9727 28.0904V28.7759H49.7461V28.0904H51.9727ZM50.0069 26.3531V30.6187H49.128V26.3531H50.0069ZM52.5997 26.3531V30.6187H51.7237V26.3531H52.5997ZM56.836 26.3531V30.6187H55.9571L54.2432 27.7593V30.6187H53.3643V26.3531H54.2432L55.96 29.2154V26.3531H56.836ZM61.1045 28.3863V28.5884C61.1045 28.9127 61.0606 29.2037 60.9727 29.4615C60.8848 29.7193 60.7608 29.939 60.6006 30.1207C60.4405 30.3004 60.2491 30.438 60.0264 30.5338C59.8057 30.6295 59.5606 30.6773 59.2911 30.6773C59.0235 30.6773 58.7784 30.6295 58.5557 30.5338C58.335 30.438 58.1436 30.3004 57.9815 30.1207C57.8194 29.939 57.6934 29.7193 57.6036 29.4615C57.5157 29.2037 57.4717 28.9127 57.4717 28.5884V28.3863C57.4717 28.0601 57.5157 27.7691 57.6036 27.5132C57.6915 27.2554 57.8155 27.0357 57.9756 26.8541C58.1377 26.6724 58.3292 26.5338 58.5499 26.438C58.7725 26.3423 59.0176 26.2945 59.2852 26.2945C59.5547 26.2945 59.7999 26.3423 60.0206 26.438C60.2432 26.5338 60.4346 26.6724 60.5948 26.8541C60.7569 27.0357 60.8819 27.2554 60.9698 27.5132C61.0596 27.7691 61.1045 28.0601 61.1045 28.3863ZM60.2169 28.5884V28.3804C60.2169 28.1539 60.1963 27.9547 60.1553 27.7828C60.1143 27.6109 60.0538 27.4664 59.9737 27.3492C59.8936 27.232 59.796 27.1441 59.6807 27.0855C59.5655 27.025 59.4336 26.9947 59.2852 26.9947C59.1368 26.9947 59.0049 27.025 58.8897 27.0855C58.7764 27.1441 58.6797 27.232 58.5997 27.3492C58.5215 27.4664 58.462 27.6109 58.421 27.7828C58.3799 27.9547 58.3594 28.1539 58.3594 28.3804V28.5884C58.3594 28.813 58.3799 29.0123 58.421 29.1861C58.462 29.358 58.5225 29.5035 58.6026 29.6226C58.6827 29.7398 58.7803 29.8287 58.8956 29.8892C59.0108 29.9498 59.1426 29.98 59.2911 29.98C59.4395 29.98 59.5713 29.9498 59.6866 29.8892C59.8018 29.8287 59.8985 29.7398 59.9766 29.6226C60.0547 29.5035 60.1143 29.358 60.1553 29.1861C60.1963 29.0123 60.2169 28.813 60.2169 28.5884ZM64.4795 29.9332V30.6187H62.3321V29.9332H64.4795ZM62.6163 26.3531V30.6187H61.7374V26.3531H62.6163ZM68.294 28.3863V28.5884C68.294 28.9127 68.2501 29.2037 68.1622 29.4615C68.0743 29.7193 67.9502 29.939 67.7901 30.1207C67.6299 30.3004 67.4385 30.438 67.2159 30.5338C66.9952 30.6295 66.7501 30.6773 66.4805 30.6773C66.2129 30.6773 65.9678 30.6295 65.7452 30.5338C65.5245 30.438 65.3331 30.3004 65.171 30.1207C65.0088 29.939 64.8829 29.7193 64.793 29.4615C64.7051 29.2037 64.6612 28.9127 64.6612 28.5884V28.3863C64.6612 28.0601 64.7051 27.7691 64.793 27.5132C64.8809 27.2554 65.0049 27.0357 65.1651 26.8541C65.3272 26.6724 65.5186 26.5338 65.7393 26.438C65.962 26.3423 66.2071 26.2945 66.4747 26.2945C66.7442 26.2945 66.9893 26.3423 67.21 26.438C67.4327 26.5338 67.6241 26.6724 67.7842 26.8541C67.9463 27.0357 68.0713 27.2554 68.1592 27.5132C68.2491 27.7691 68.294 28.0601 68.294 28.3863ZM67.4063 28.5884V28.3804C67.4063 28.1539 67.3858 27.9547 67.3448 27.7828C67.3038 27.6109 67.2432 27.4664 67.1631 27.3492C67.0831 27.232 66.9854 27.1441 66.8702 27.0855C66.7549 27.025 66.6231 26.9947 66.4747 26.9947C66.3262 26.9947 66.1944 27.025 66.0792 27.0855C65.9659 27.1441 65.8692 27.232 65.7891 27.3492C65.711 27.4664 65.6514 27.6109 65.6104 27.7828C65.5694 27.9547 65.5489 28.1539 65.5489 28.3804V28.5884C65.5489 28.813 65.5694 29.0123 65.6104 29.1861C65.6514 29.358 65.712 29.5035 65.792 29.6226C65.8721 29.7398 65.9698 29.8287 66.085 29.8892C66.2002 29.9498 66.3321 29.98 66.4805 29.98C66.629 29.98 66.7608 29.9498 66.876 29.8892C66.9913 29.8287 67.0879 29.7398 67.1661 29.6226C67.2442 29.5035 67.3038 29.358 67.3448 29.1861C67.3858 29.0123 67.4063 28.813 67.4063 28.5884ZM72.3077 28.3892V30.0797C72.2413 30.1597 72.1387 30.2466 72.0001 30.3404C71.8614 30.4322 71.6827 30.5113 71.4639 30.5777C71.2452 30.6441 70.9805 30.6773 70.67 30.6773C70.3946 30.6773 70.1436 30.6324 69.917 30.5425C69.6905 30.4507 69.4952 30.317 69.3311 30.1412C69.169 29.9654 69.044 29.7505 68.9561 29.4966C68.8682 29.2408 68.8243 28.9488 68.8243 28.6207V28.3541C68.8243 28.0259 68.8663 27.7339 68.9502 27.4781C69.0362 27.2222 69.1583 27.0064 69.3165 26.8306C69.4747 26.6548 69.6631 26.5211 69.8819 26.4293C70.1006 26.3375 70.3438 26.2916 70.6114 26.2916C70.9825 26.2916 71.2872 26.3521 71.5254 26.4732C71.7637 26.5923 71.9454 26.7584 72.0704 26.9713C72.1973 27.1822 72.2754 27.4244 72.3047 27.6978H71.4522C71.4307 27.5533 71.3897 27.4273 71.3292 27.3199C71.2686 27.2125 71.1817 27.1285 71.0684 27.0679C70.9571 27.0074 70.8126 26.9771 70.6348 26.9771C70.4883 26.9771 70.3575 27.0074 70.2422 27.0679C70.129 27.1265 70.0333 27.2134 69.9551 27.3287C69.877 27.4439 69.8174 27.5865 69.7764 27.7564C69.7354 27.9263 69.7149 28.1236 69.7149 28.3482V28.6207C69.7149 28.8433 69.7364 29.0406 69.7794 29.2125C69.8223 29.3824 69.8858 29.5259 69.9698 29.6431C70.0557 29.7584 70.1612 29.8453 70.2862 29.9039C70.4112 29.9625 70.5567 29.9918 70.7227 29.9918C70.8614 29.9918 70.9766 29.98 71.0684 29.9566C71.1622 29.9332 71.2374 29.9048 71.294 29.8716C71.3526 29.8365 71.3975 29.8033 71.4288 29.772V29.0162H70.626V28.3892H72.3077ZM73.6026 26.3531L74.4932 28.2984L75.3838 26.3531H76.3419L74.9385 29.066V30.6187H74.0479V29.066L72.6417 26.3531H73.6026ZM80.4463 29.5025C80.4463 29.4263 80.4346 29.358 80.4112 29.2974C80.3897 29.2349 80.3487 29.1783 80.2881 29.1275C80.2276 29.0748 80.1426 29.023 80.0333 28.9722C79.9239 28.9214 79.7823 28.8687 79.6085 28.814C79.4151 28.7515 79.2315 28.6812 79.0577 28.6031C78.8858 28.525 78.7335 28.4341 78.6006 28.3306C78.4698 28.2252 78.3663 28.1031 78.2901 27.9644C78.2159 27.8257 78.1788 27.6646 78.1788 27.481C78.1788 27.3033 78.2178 27.1422 78.296 26.9976C78.3741 26.8511 78.4835 26.7261 78.6241 26.6226C78.7647 26.5172 78.9307 26.4361 79.1221 26.3795C79.3155 26.3228 79.5274 26.2945 79.7579 26.2945C80.0723 26.2945 80.3467 26.3511 80.5811 26.4644C80.8155 26.5777 80.9971 26.733 81.126 26.9302C81.2569 27.1275 81.3223 27.3531 81.3223 27.607H80.4493C80.4493 27.482 80.4229 27.3726 80.3702 27.2789C80.3194 27.1832 80.2413 27.108 80.1358 27.0533C80.0323 26.9986 79.9014 26.9713 79.7432 26.9713C79.5909 26.9713 79.4639 26.9947 79.3624 27.0416C79.2608 27.0865 79.1846 27.148 79.1338 27.2261C79.0831 27.3023 79.0577 27.3882 79.0577 27.4839C79.0577 27.5562 79.0752 27.6216 79.1104 27.6802C79.1475 27.7388 79.2022 27.7935 79.2745 27.8443C79.3467 27.8951 79.4356 27.9429 79.5411 27.9879C79.6465 28.0328 79.7686 28.0767 79.9073 28.1197C80.1397 28.19 80.3438 28.2691 80.5196 28.357C80.6973 28.4449 80.8458 28.5435 80.9649 28.6529C81.084 28.7623 81.1739 28.8863 81.2344 29.025C81.295 29.1636 81.3252 29.3209 81.3252 29.4966C81.3252 29.6822 81.2891 29.8482 81.2169 29.9947C81.1446 30.1412 81.0401 30.2652 80.9034 30.3668C80.7667 30.4683 80.6036 30.5455 80.4141 30.5982C80.2247 30.6509 80.0127 30.6773 79.7784 30.6773C79.5674 30.6773 79.3594 30.65 79.1544 30.5953C78.9493 30.5386 78.7627 30.4537 78.5948 30.3404C78.4288 30.2271 78.296 30.0826 78.1963 29.9068C78.0967 29.731 78.0469 29.523 78.0469 29.2828H78.9288C78.9288 29.4156 78.9493 29.5279 78.9903 29.6197C79.0313 29.7115 79.0889 29.7857 79.1631 29.8423C79.2393 29.899 79.3292 29.94 79.4327 29.9654C79.5381 29.9908 79.6534 30.0035 79.7784 30.0035C79.9307 30.0035 80.0557 29.982 80.1534 29.939C80.253 29.8961 80.3262 29.8365 80.3731 29.7603C80.4219 29.6841 80.4463 29.5982 80.4463 29.5025ZM82.5088 26.3531L83.3995 28.2984L84.2901 26.3531H85.2481L83.8448 29.066V30.6187H82.9542V29.066L81.5479 26.3531H82.5088ZM87.8116 29.5025C87.8116 29.4263 87.7999 29.358 87.7764 29.2974C87.7549 29.2349 87.7139 29.1783 87.6534 29.1275C87.5928 29.0748 87.5079 29.023 87.3985 28.9722C87.2891 28.9214 87.1475 28.8687 86.9737 28.814C86.7803 28.7515 86.5967 28.6812 86.4229 28.6031C86.251 28.525 86.0987 28.4341 85.9659 28.3306C85.835 28.2252 85.7315 28.1031 85.6553 27.9644C85.5811 27.8257 85.544 27.6646 85.544 27.481C85.544 27.3033 85.5831 27.1422 85.6612 26.9976C85.7393 26.8511 85.8487 26.7261 85.9893 26.6226C86.1299 26.5172 86.296 26.4361 86.4874 26.3795C86.6807 26.3228 86.8926 26.2945 87.1231 26.2945C87.4376 26.2945 87.712 26.3511 87.9463 26.4644C88.1807 26.5777 88.3624 26.733 88.4913 26.9302C88.6221 27.1275 88.6876 27.3531 88.6876 27.607H87.8145C87.8145 27.482 87.7881 27.3726 87.7354 27.2789C87.6846 27.1832 87.6065 27.108 87.501 27.0533C87.3975 26.9986 87.2667 26.9713 87.1085 26.9713C86.9561 26.9713 86.8292 26.9947 86.7276 27.0416C86.626 27.0865 86.5499 27.148 86.4991 27.2261C86.4483 27.3023 86.4229 27.3882 86.4229 27.4839C86.4229 27.5562 86.4405 27.6216 86.4756 27.6802C86.5127 27.7388 86.5674 27.7935 86.6397 27.8443C86.712 27.8951 86.8008 27.9429 86.9063 27.9879C87.0118 28.0328 87.1338 28.0767 87.2725 28.1197C87.5049 28.19 87.709 28.2691 87.8848 28.357C88.0626 28.4449 88.211 28.5435 88.3301 28.6529C88.4493 28.7623 88.5391 28.8863 88.5997 29.025C88.6602 29.1636 88.6905 29.3209 88.6905 29.4966C88.6905 29.6822 88.6544 29.8482 88.5821 29.9947C88.5098 30.1412 88.4053 30.2652 88.2686 30.3668C88.1319 30.4683 87.9688 30.5455 87.7794 30.5982C87.5899 30.6509 87.378 30.6773 87.1436 30.6773C86.9327 30.6773 86.7247 30.65 86.5196 30.5953C86.3145 30.5386 86.128 30.4537 85.96 30.3404C85.794 30.2271 85.6612 30.0826 85.5616 29.9068C85.462 29.731 85.4122 29.523 85.4122 29.2828H86.294C86.294 29.4156 86.3145 29.5279 86.3555 29.6197C86.3965 29.7115 86.4542 29.7857 86.5284 29.8423C86.6045 29.899 86.6944 29.94 86.7979 29.9654C86.9034 29.9908 87.0186 30.0035 87.1436 30.0035C87.296 30.0035 87.421 29.982 87.5186 29.939C87.6182 29.8961 87.6915 29.8365 87.7383 29.7603C87.7872 29.6841 87.8116 29.5982 87.8116 29.5025ZM91.1954 26.3531V30.6187H90.3194V26.3531H91.1954ZM92.5079 26.3531V27.0416H89.0274V26.3531H92.5079ZM95.8711 29.9332V30.6187H93.6006V29.9332H95.8711ZM93.8877 26.3531V30.6187H93.0088V26.3531H93.8877ZM95.5752 28.0904V28.7584H93.6006V28.0904H95.5752ZM95.8682 26.3531V27.0416H93.6006V26.3531H95.8682ZM96.7852 26.3531H97.5294L98.6251 29.4849L99.7208 26.3531H100.465L98.9239 30.6187H98.3262L96.7852 26.3531ZM96.3838 26.3531H97.1251L97.2598 29.4058V30.6187H96.3838V26.3531ZM100.125 26.3531H100.869V30.6187H99.9903V29.4058L100.125 26.3531Z" fill="#0067FF"/>
<path d="M21.6276 0.697142C20.4306 0.818671 17.8276 1.46104 16.7256 1.91243C13.8186 3.07563 10.8546 5.43675 9.25854 7.88468C7.45353 10.6451 6.97853 12.0687 6.86453 15.1764C6.71253 18.7181 7.37753 21.1313 9.25854 23.9959C11.9186 28.0063 17.2196 30.9751 22.1026 31.1487C23.3756 31.2008 23.3376 31.2529 23.3376 29.7772V28.4404L21.4376 28.1279C18.2076 27.6417 15.5856 26.357 13.5146 24.291C11.4436 22.225 10.4176 20.1591 10.0185 17.2945C9.48654 13.5097 10.8736 10.0201 14.0086 7.17287C15.3576 5.94023 15.9656 5.54092 17.4476 4.88119C19.1766 4.09994 21.4376 3.52702 22.7676 3.52702H23.3566L23.2996 2.08604C23.2426 0.506169 23.2616 0.52353 21.6276 0.697142Z" fill="#0067FF"/>
<path d="M20.8866 7.10338C16.3646 8.2145 13.2486 12.1381 13.5146 16.3743C13.7996 20.8535 17.4286 24.4125 22.2737 24.9681L23.3377 25.0896L23.3757 20.5236L23.4327 15.9402L28.4487 15.8882L33.4647 15.8534L33.3507 14.7597C32.9707 11.218 29.9117 8.04089 25.9787 7.08602C24.6867 6.75616 22.2167 6.77352 20.8866 7.10338Z" fill="#0067FF"/>
<path d="M0.0624582 16.2006C-0.127543 16.4958 0.138459 18.8916 0.556462 20.6277C2.05747 26.7562 6.5225 32.034 12.6785 34.9855C15.3576 36.2528 19.9176 37.3813 22.4256 37.3813H23.3566L23.2996 35.9403L23.2426 34.5167L21.7226 34.3952C16.7256 33.9785 12.3745 32.0688 8.93552 28.8049C6.6745 26.6521 5.34449 24.6903 4.29949 22.0166C3.82448 20.8187 3.23548 18.1798 3.15948 16.8083L3.10248 16.1138L1.63947 16.0617C0.746463 16.027 0.138459 16.0791 0.0624582 16.2006Z" fill="#0067FF"/>
</svg>
